<mxfile host="app.diagrams.net" modified="2021-09-25T08:49:37.442Z" agent="5.0 (Windows NT 10.0; Win64; x64) AppleWebKit/537.36 (KHTML, like Gecko) Chrome/94.0.4606.54 Safari/537.36" etag="QZFhH0EPHfG7DT85L3wA" version="15.3.1" type="github">
  <diagram id="VqV0lAHG9-WoSUG-qjkB" name="Page-1">
    <mxGraphModel dx="1550" dy="779" grid="1" gridSize="10" guides="1" tooltips="1" connect="1" arrows="1" fold="1" page="1" pageScale="1" pageWidth="827" pageHeight="1169" background="#DAD2D8" math="0" shadow="0">
      <root>
        <mxCell id="0" />
        <mxCell id="1" parent="0" />
        <mxCell id="1sglsYP2rjDwxEyhJE_g-1" style="rounded=0;orthogonalLoop=1;jettySize=auto;html=1;entryX=0.5;entryY=0;entryDx=0;entryDy=0;sketch=1;labelBackgroundColor=#DAD2D8;strokeColor=#A8201A;fontColor=#143642;" edge="1" parent="1" source="1sglsYP2rjDwxEyhJE_g-3" target="1sglsYP2rjDwxEyhJE_g-6">
          <mxGeometry relative="1" as="geometry">
            <mxPoint x="1010" y="286" as="targetPoint" />
          </mxGeometry>
        </mxCell>
        <mxCell id="1sglsYP2rjDwxEyhJE_g-2" style="edgeStyle=none;rounded=0;orthogonalLoop=1;jettySize=auto;html=1;entryX=0.5;entryY=0;entryDx=0;entryDy=0;sketch=1;labelBackgroundColor=#DAD2D8;strokeColor=#A8201A;fontColor=#143642;" edge="1" parent="1" source="1sglsYP2rjDwxEyhJE_g-3" target="1sglsYP2rjDwxEyhJE_g-13">
          <mxGeometry relative="1" as="geometry" />
        </mxCell>
        <mxCell id="1sglsYP2rjDwxEyhJE_g-3" value="92" style="ellipse;whiteSpace=wrap;html=1;aspect=fixed;sketch=1;fillColor=#FAE5C7;strokeColor=#0F8B8D;fontColor=#143642;" vertex="1" parent="1">
          <mxGeometry x="1100" y="200" width="40" height="40" as="geometry" />
        </mxCell>
        <mxCell id="1sglsYP2rjDwxEyhJE_g-4" style="edgeStyle=none;rounded=0;orthogonalLoop=1;jettySize=auto;html=1;entryX=0.5;entryY=0;entryDx=0;entryDy=0;sketch=1;labelBackgroundColor=#DAD2D8;strokeColor=#A8201A;fontColor=#143642;" edge="1" parent="1" source="1sglsYP2rjDwxEyhJE_g-6" target="1sglsYP2rjDwxEyhJE_g-10">
          <mxGeometry relative="1" as="geometry" />
        </mxCell>
        <mxCell id="1sglsYP2rjDwxEyhJE_g-5" style="edgeStyle=none;rounded=0;orthogonalLoop=1;jettySize=auto;html=1;exitX=0;exitY=0.5;exitDx=0;exitDy=0;entryX=0.5;entryY=0;entryDx=0;entryDy=0;sketch=1;labelBackgroundColor=#DAD2D8;strokeColor=#A8201A;fontColor=#143642;" edge="1" parent="1" source="1sglsYP2rjDwxEyhJE_g-6" target="1sglsYP2rjDwxEyhJE_g-9">
          <mxGeometry relative="1" as="geometry" />
        </mxCell>
        <mxCell id="1sglsYP2rjDwxEyhJE_g-6" value="82" style="ellipse;whiteSpace=wrap;html=1;aspect=fixed;sketch=1;fillColor=#FAE5C7;strokeColor=#0F8B8D;fontColor=#143642;" vertex="1" parent="1">
          <mxGeometry x="980" y="280" width="40" height="40" as="geometry" />
        </mxCell>
        <mxCell id="1sglsYP2rjDwxEyhJE_g-7" style="edgeStyle=none;rounded=0;orthogonalLoop=1;jettySize=auto;html=1;entryX=0.5;entryY=0;entryDx=0;entryDy=0;sketch=1;labelBackgroundColor=#DAD2D8;strokeColor=#A8201A;fontColor=#143642;" edge="1" parent="1" source="1sglsYP2rjDwxEyhJE_g-9" target="1sglsYP2rjDwxEyhJE_g-16">
          <mxGeometry relative="1" as="geometry" />
        </mxCell>
        <mxCell id="1sglsYP2rjDwxEyhJE_g-8" style="edgeStyle=none;rounded=0;orthogonalLoop=1;jettySize=auto;html=1;entryX=0.5;entryY=0;entryDx=0;entryDy=0;sketch=1;labelBackgroundColor=#DAD2D8;strokeColor=#A8201A;fontColor=#143642;" edge="1" parent="1" source="1sglsYP2rjDwxEyhJE_g-9" target="1sglsYP2rjDwxEyhJE_g-17">
          <mxGeometry relative="1" as="geometry" />
        </mxCell>
        <mxCell id="1sglsYP2rjDwxEyhJE_g-9" value="66" style="ellipse;whiteSpace=wrap;html=1;aspect=fixed;sketch=1;fillColor=#FAE5C7;strokeColor=#0F8B8D;fontColor=#143642;" vertex="1" parent="1">
          <mxGeometry x="900" y="360" width="40" height="40" as="geometry" />
        </mxCell>
        <mxCell id="1sglsYP2rjDwxEyhJE_g-10" value="81" style="ellipse;whiteSpace=wrap;html=1;aspect=fixed;sketch=1;fillColor=#FAE5C7;strokeColor=#0F8B8D;fontColor=#143642;" vertex="1" parent="1">
          <mxGeometry x="1060" y="360" width="40" height="40" as="geometry" />
        </mxCell>
        <mxCell id="1sglsYP2rjDwxEyhJE_g-11" style="edgeStyle=none;rounded=0;orthogonalLoop=1;jettySize=auto;html=1;entryX=0.5;entryY=0;entryDx=0;entryDy=0;sketch=1;labelBackgroundColor=#DAD2D8;strokeColor=#A8201A;fontColor=#143642;" edge="1" parent="1" source="1sglsYP2rjDwxEyhJE_g-13" target="1sglsYP2rjDwxEyhJE_g-14">
          <mxGeometry relative="1" as="geometry" />
        </mxCell>
        <mxCell id="1sglsYP2rjDwxEyhJE_g-12" style="edgeStyle=none;rounded=0;orthogonalLoop=1;jettySize=auto;html=1;exitX=1;exitY=0.5;exitDx=0;exitDy=0;entryX=0.5;entryY=0;entryDx=0;entryDy=0;sketch=1;labelBackgroundColor=#DAD2D8;strokeColor=#A8201A;fontColor=#143642;" edge="1" parent="1" source="1sglsYP2rjDwxEyhJE_g-13" target="1sglsYP2rjDwxEyhJE_g-15">
          <mxGeometry relative="1" as="geometry" />
        </mxCell>
        <mxCell id="1sglsYP2rjDwxEyhJE_g-13" value="62" style="ellipse;whiteSpace=wrap;html=1;aspect=fixed;sketch=1;fillColor=#FAE5C7;strokeColor=#0F8B8D;fontColor=#143642;" vertex="1" parent="1">
          <mxGeometry x="1220" y="280" width="40" height="40" as="geometry" />
        </mxCell>
        <mxCell id="1sglsYP2rjDwxEyhJE_g-14" value="45" style="ellipse;whiteSpace=wrap;html=1;aspect=fixed;sketch=1;fillColor=#FAE5C7;strokeColor=#0F8B8D;fontColor=#143642;" vertex="1" parent="1">
          <mxGeometry x="1140" y="360" width="40" height="40" as="geometry" />
        </mxCell>
        <mxCell id="1sglsYP2rjDwxEyhJE_g-15" value="49" style="ellipse;whiteSpace=wrap;html=1;aspect=fixed;sketch=1;fillColor=#FAE5C7;strokeColor=#0F8B8D;fontColor=#143642;" vertex="1" parent="1">
          <mxGeometry x="1300" y="360" width="40" height="40" as="geometry" />
        </mxCell>
        <mxCell id="1sglsYP2rjDwxEyhJE_g-16" value="40" style="ellipse;whiteSpace=wrap;html=1;aspect=fixed;sketch=1;fillColor=#FAE5C7;strokeColor=#0F8B8D;fontColor=#143642;" vertex="1" parent="1">
          <mxGeometry x="820" y="440" width="40" height="40" as="geometry" />
        </mxCell>
        <mxCell id="1sglsYP2rjDwxEyhJE_g-17" value="50" style="ellipse;whiteSpace=wrap;html=1;aspect=fixed;sketch=1;fillColor=#FAE5C7;strokeColor=#0F8B8D;fontColor=#143642;" vertex="1" parent="1">
          <mxGeometry x="980" y="440" width="40" height="40" as="geometry" />
        </mxCell>
        <mxCell id="1sglsYP2rjDwxEyhJE_g-18" style="rounded=0;orthogonalLoop=1;jettySize=auto;html=1;entryX=0.5;entryY=0;entryDx=0;entryDy=0;sketch=1;labelBackgroundColor=#DAD2D8;strokeColor=#A8201A;fontColor=#143642;" edge="1" parent="1" source="1sglsYP2rjDwxEyhJE_g-21" target="1sglsYP2rjDwxEyhJE_g-24">
          <mxGeometry relative="1" as="geometry">
            <mxPoint x="1050" y="646" as="targetPoint" />
          </mxGeometry>
        </mxCell>
        <mxCell id="1sglsYP2rjDwxEyhJE_g-19" style="edgeStyle=none;rounded=0;orthogonalLoop=1;jettySize=auto;html=1;entryX=0.5;entryY=0;entryDx=0;entryDy=0;sketch=1;labelBackgroundColor=#DAD2D8;strokeColor=#A8201A;fontColor=#143642;" edge="1" parent="1" source="1sglsYP2rjDwxEyhJE_g-21" target="1sglsYP2rjDwxEyhJE_g-31">
          <mxGeometry relative="1" as="geometry" />
        </mxCell>
        <mxCell id="1sglsYP2rjDwxEyhJE_g-20" style="rounded=0;orthogonalLoop=1;jettySize=auto;html=1;entryX=1;entryY=0;entryDx=0;entryDy=0;dashed=1;startArrow=none;startFill=0;endArrow=classicThin;endFill=1;opacity=30;sketch=1;labelBackgroundColor=#DAD2D8;strokeColor=#A8201A;fontColor=#143642;" edge="1" parent="1" source="1sglsYP2rjDwxEyhJE_g-21" target="1sglsYP2rjDwxEyhJE_g-35">
          <mxGeometry relative="1" as="geometry" />
        </mxCell>
        <mxCell id="1sglsYP2rjDwxEyhJE_g-21" value="92" style="ellipse;whiteSpace=wrap;html=1;aspect=fixed;fillColor=#FAE5C7;sketch=1;strokeColor=#0F8B8D;fontColor=#143642;" vertex="1" parent="1">
          <mxGeometry x="1140" y="560" width="40" height="40" as="geometry" />
        </mxCell>
        <mxCell id="1sglsYP2rjDwxEyhJE_g-22" style="edgeStyle=none;rounded=0;orthogonalLoop=1;jettySize=auto;html=1;entryX=0.5;entryY=0;entryDx=0;entryDy=0;sketch=1;labelBackgroundColor=#DAD2D8;strokeColor=#A8201A;fontColor=#143642;" edge="1" parent="1" source="1sglsYP2rjDwxEyhJE_g-24" target="1sglsYP2rjDwxEyhJE_g-28">
          <mxGeometry relative="1" as="geometry" />
        </mxCell>
        <mxCell id="1sglsYP2rjDwxEyhJE_g-23" style="edgeStyle=none;rounded=0;orthogonalLoop=1;jettySize=auto;html=1;exitX=0;exitY=0.5;exitDx=0;exitDy=0;entryX=0.5;entryY=0;entryDx=0;entryDy=0;sketch=1;labelBackgroundColor=#DAD2D8;strokeColor=#A8201A;fontColor=#143642;" edge="1" parent="1" source="1sglsYP2rjDwxEyhJE_g-24" target="1sglsYP2rjDwxEyhJE_g-27">
          <mxGeometry relative="1" as="geometry" />
        </mxCell>
        <mxCell id="1sglsYP2rjDwxEyhJE_g-24" value="82" style="ellipse;whiteSpace=wrap;html=1;aspect=fixed;sketch=1;fillColor=#FAE5C7;strokeColor=#0F8B8D;fontColor=#143642;" vertex="1" parent="1">
          <mxGeometry x="1020" y="640" width="40" height="40" as="geometry" />
        </mxCell>
        <mxCell id="1sglsYP2rjDwxEyhJE_g-25" style="edgeStyle=none;rounded=0;orthogonalLoop=1;jettySize=auto;html=1;entryX=0.5;entryY=0;entryDx=0;entryDy=0;sketch=1;labelBackgroundColor=#DAD2D8;strokeColor=#A8201A;fontColor=#143642;" edge="1" parent="1" source="1sglsYP2rjDwxEyhJE_g-27" target="1sglsYP2rjDwxEyhJE_g-34">
          <mxGeometry relative="1" as="geometry" />
        </mxCell>
        <mxCell id="1sglsYP2rjDwxEyhJE_g-26" style="edgeStyle=none;rounded=0;orthogonalLoop=1;jettySize=auto;html=1;entryX=0.5;entryY=0;entryDx=0;entryDy=0;sketch=1;labelBackgroundColor=#DAD2D8;strokeColor=#A8201A;fontColor=#143642;" edge="1" parent="1" source="1sglsYP2rjDwxEyhJE_g-27" target="1sglsYP2rjDwxEyhJE_g-35">
          <mxGeometry relative="1" as="geometry" />
        </mxCell>
        <mxCell id="1sglsYP2rjDwxEyhJE_g-27" value="66" style="ellipse;whiteSpace=wrap;html=1;aspect=fixed;sketch=1;fillColor=#FAE5C7;strokeColor=#0F8B8D;fontColor=#143642;" vertex="1" parent="1">
          <mxGeometry x="940" y="720" width="40" height="40" as="geometry" />
        </mxCell>
        <mxCell id="1sglsYP2rjDwxEyhJE_g-28" value="81" style="ellipse;whiteSpace=wrap;html=1;aspect=fixed;sketch=1;fillColor=#FAE5C7;strokeColor=#0F8B8D;fontColor=#143642;" vertex="1" parent="1">
          <mxGeometry x="1100" y="720" width="40" height="40" as="geometry" />
        </mxCell>
        <mxCell id="1sglsYP2rjDwxEyhJE_g-29" style="edgeStyle=none;rounded=0;orthogonalLoop=1;jettySize=auto;html=1;entryX=0.5;entryY=0;entryDx=0;entryDy=0;sketch=1;labelBackgroundColor=#DAD2D8;strokeColor=#A8201A;fontColor=#143642;" edge="1" parent="1" source="1sglsYP2rjDwxEyhJE_g-31" target="1sglsYP2rjDwxEyhJE_g-32">
          <mxGeometry relative="1" as="geometry" />
        </mxCell>
        <mxCell id="1sglsYP2rjDwxEyhJE_g-30" style="edgeStyle=none;rounded=0;orthogonalLoop=1;jettySize=auto;html=1;exitX=1;exitY=0.5;exitDx=0;exitDy=0;entryX=0.5;entryY=0;entryDx=0;entryDy=0;sketch=1;labelBackgroundColor=#DAD2D8;strokeColor=#A8201A;fontColor=#143642;" edge="1" parent="1" source="1sglsYP2rjDwxEyhJE_g-31" target="1sglsYP2rjDwxEyhJE_g-33">
          <mxGeometry relative="1" as="geometry" />
        </mxCell>
        <mxCell id="1sglsYP2rjDwxEyhJE_g-31" value="62" style="ellipse;whiteSpace=wrap;html=1;aspect=fixed;sketch=1;fillColor=#FAE5C7;strokeColor=#0F8B8D;fontColor=#143642;" vertex="1" parent="1">
          <mxGeometry x="1260" y="640" width="40" height="40" as="geometry" />
        </mxCell>
        <mxCell id="1sglsYP2rjDwxEyhJE_g-32" value="45" style="ellipse;whiteSpace=wrap;html=1;aspect=fixed;sketch=1;fillColor=#FAE5C7;strokeColor=#0F8B8D;fontColor=#143642;" vertex="1" parent="1">
          <mxGeometry x="1180" y="720" width="40" height="40" as="geometry" />
        </mxCell>
        <mxCell id="1sglsYP2rjDwxEyhJE_g-33" value="49" style="ellipse;whiteSpace=wrap;html=1;aspect=fixed;sketch=1;fillColor=#FAE5C7;strokeColor=#0F8B8D;fontColor=#143642;" vertex="1" parent="1">
          <mxGeometry x="1340" y="720" width="40" height="40" as="geometry" />
        </mxCell>
        <mxCell id="1sglsYP2rjDwxEyhJE_g-34" value="40" style="ellipse;whiteSpace=wrap;html=1;aspect=fixed;sketch=1;fillColor=#FAE5C7;strokeColor=#0F8B8D;fontColor=#143642;" vertex="1" parent="1">
          <mxGeometry x="860" y="800" width="40" height="40" as="geometry" />
        </mxCell>
        <mxCell id="1sglsYP2rjDwxEyhJE_g-35" value="92" style="ellipse;whiteSpace=wrap;html=1;aspect=fixed;fillColor=#FAE5C7;sketch=1;strokeColor=#0F8B8D;fontColor=#143642;" vertex="1" parent="1">
          <mxGeometry x="1020" y="800" width="40" height="40" as="geometry" />
        </mxCell>
        <mxCell id="1sglsYP2rjDwxEyhJE_g-36" style="rounded=0;orthogonalLoop=1;jettySize=auto;html=1;entryX=0.5;entryY=0;entryDx=0;entryDy=0;sketch=1;labelBackgroundColor=#DAD2D8;strokeColor=#A8201A;fontColor=#143642;" edge="1" parent="1" source="1sglsYP2rjDwxEyhJE_g-38" target="1sglsYP2rjDwxEyhJE_g-42">
          <mxGeometry relative="1" as="geometry">
            <mxPoint x="1040" y="986" as="targetPoint" />
          </mxGeometry>
        </mxCell>
        <mxCell id="1sglsYP2rjDwxEyhJE_g-37" style="edgeStyle=none;rounded=0;orthogonalLoop=1;jettySize=auto;html=1;entryX=0.5;entryY=0;entryDx=0;entryDy=0;sketch=1;labelBackgroundColor=#DAD2D8;strokeColor=#A8201A;fontColor=#143642;" edge="1" parent="1" source="1sglsYP2rjDwxEyhJE_g-38" target="1sglsYP2rjDwxEyhJE_g-49">
          <mxGeometry relative="1" as="geometry" />
        </mxCell>
        <mxCell id="1sglsYP2rjDwxEyhJE_g-38" value="82" style="ellipse;whiteSpace=wrap;html=1;aspect=fixed;fillColor=#FAE5C7;sketch=1;strokeColor=#0F8B8D;fontColor=#143642;" vertex="1" parent="1">
          <mxGeometry x="1130" y="900" width="40" height="40" as="geometry" />
        </mxCell>
        <mxCell id="1sglsYP2rjDwxEyhJE_g-39" style="edgeStyle=none;rounded=0;orthogonalLoop=1;jettySize=auto;html=1;entryX=0.5;entryY=0;entryDx=0;entryDy=0;sketch=1;labelBackgroundColor=#DAD2D8;strokeColor=#A8201A;fontColor=#143642;" edge="1" parent="1" source="1sglsYP2rjDwxEyhJE_g-42" target="1sglsYP2rjDwxEyhJE_g-46">
          <mxGeometry relative="1" as="geometry" />
        </mxCell>
        <mxCell id="1sglsYP2rjDwxEyhJE_g-40" style="edgeStyle=none;rounded=0;orthogonalLoop=1;jettySize=auto;html=1;exitX=0;exitY=0.5;exitDx=0;exitDy=0;entryX=0.5;entryY=0;entryDx=0;entryDy=0;sketch=1;labelBackgroundColor=#DAD2D8;strokeColor=#A8201A;fontColor=#143642;" edge="1" parent="1" source="1sglsYP2rjDwxEyhJE_g-42" target="1sglsYP2rjDwxEyhJE_g-45">
          <mxGeometry relative="1" as="geometry" />
        </mxCell>
        <mxCell id="1sglsYP2rjDwxEyhJE_g-41" style="edgeStyle=orthogonalEdgeStyle;rounded=0;orthogonalLoop=1;jettySize=auto;html=1;entryX=0.5;entryY=0;entryDx=0;entryDy=0;dashed=1;startArrow=none;startFill=0;endArrow=classicThin;endFill=1;opacity=30;sketch=1;labelBackgroundColor=#DAD2D8;strokeColor=#A8201A;fontColor=#143642;" edge="1" parent="1" source="1sglsYP2rjDwxEyhJE_g-42" target="1sglsYP2rjDwxEyhJE_g-38">
          <mxGeometry relative="1" as="geometry">
            <Array as="points">
              <mxPoint x="1020" y="880" />
              <mxPoint x="1150" y="880" />
            </Array>
          </mxGeometry>
        </mxCell>
        <mxCell id="1sglsYP2rjDwxEyhJE_g-42" value="82" style="ellipse;whiteSpace=wrap;html=1;aspect=fixed;fillColor=#FAE5C7;sketch=1;strokeColor=#0F8B8D;fontColor=#143642;" vertex="1" parent="1">
          <mxGeometry x="1010" y="980" width="40" height="40" as="geometry" />
        </mxCell>
        <mxCell id="1sglsYP2rjDwxEyhJE_g-43" style="edgeStyle=none;rounded=0;orthogonalLoop=1;jettySize=auto;html=1;entryX=0.5;entryY=0;entryDx=0;entryDy=0;sketch=1;labelBackgroundColor=#DAD2D8;strokeColor=#A8201A;fontColor=#143642;" edge="1" parent="1" source="1sglsYP2rjDwxEyhJE_g-45" target="1sglsYP2rjDwxEyhJE_g-52">
          <mxGeometry relative="1" as="geometry" />
        </mxCell>
        <mxCell id="1sglsYP2rjDwxEyhJE_g-44" style="edgeStyle=none;rounded=0;orthogonalLoop=1;jettySize=auto;html=1;entryX=0.5;entryY=0;entryDx=0;entryDy=0;sketch=1;labelBackgroundColor=#DAD2D8;strokeColor=#A8201A;fontColor=#143642;" edge="1" parent="1" source="1sglsYP2rjDwxEyhJE_g-45" target="1sglsYP2rjDwxEyhJE_g-53">
          <mxGeometry relative="1" as="geometry" />
        </mxCell>
        <mxCell id="1sglsYP2rjDwxEyhJE_g-45" value="66" style="ellipse;whiteSpace=wrap;html=1;aspect=fixed;sketch=1;fillColor=#FAE5C7;strokeColor=#0F8B8D;fontColor=#143642;" vertex="1" parent="1">
          <mxGeometry x="930" y="1060" width="40" height="40" as="geometry" />
        </mxCell>
        <mxCell id="1sglsYP2rjDwxEyhJE_g-46" value="81" style="ellipse;whiteSpace=wrap;html=1;aspect=fixed;sketch=1;fillColor=#FAE5C7;strokeColor=#0F8B8D;fontColor=#143642;" vertex="1" parent="1">
          <mxGeometry x="1090" y="1060" width="40" height="40" as="geometry" />
        </mxCell>
        <mxCell id="1sglsYP2rjDwxEyhJE_g-47" style="edgeStyle=none;rounded=0;orthogonalLoop=1;jettySize=auto;html=1;entryX=0.5;entryY=0;entryDx=0;entryDy=0;sketch=1;labelBackgroundColor=#DAD2D8;strokeColor=#A8201A;fontColor=#143642;" edge="1" parent="1" source="1sglsYP2rjDwxEyhJE_g-49" target="1sglsYP2rjDwxEyhJE_g-50">
          <mxGeometry relative="1" as="geometry" />
        </mxCell>
        <mxCell id="1sglsYP2rjDwxEyhJE_g-48" style="edgeStyle=none;rounded=0;orthogonalLoop=1;jettySize=auto;html=1;exitX=1;exitY=0.5;exitDx=0;exitDy=0;entryX=0.5;entryY=0;entryDx=0;entryDy=0;sketch=1;labelBackgroundColor=#DAD2D8;strokeColor=#A8201A;fontColor=#143642;" edge="1" parent="1" source="1sglsYP2rjDwxEyhJE_g-49" target="1sglsYP2rjDwxEyhJE_g-51">
          <mxGeometry relative="1" as="geometry" />
        </mxCell>
        <mxCell id="1sglsYP2rjDwxEyhJE_g-49" value="62" style="ellipse;whiteSpace=wrap;html=1;aspect=fixed;sketch=1;fillColor=#FAE5C7;strokeColor=#0F8B8D;fontColor=#143642;" vertex="1" parent="1">
          <mxGeometry x="1250" y="980" width="40" height="40" as="geometry" />
        </mxCell>
        <mxCell id="1sglsYP2rjDwxEyhJE_g-50" value="45" style="ellipse;whiteSpace=wrap;html=1;aspect=fixed;sketch=1;fillColor=#FAE5C7;strokeColor=#0F8B8D;fontColor=#143642;" vertex="1" parent="1">
          <mxGeometry x="1170" y="1060" width="40" height="40" as="geometry" />
        </mxCell>
        <mxCell id="1sglsYP2rjDwxEyhJE_g-51" value="49" style="ellipse;whiteSpace=wrap;html=1;aspect=fixed;sketch=1;fillColor=#FAE5C7;strokeColor=#0F8B8D;fontColor=#143642;" vertex="1" parent="1">
          <mxGeometry x="1330" y="1060" width="40" height="40" as="geometry" />
        </mxCell>
        <mxCell id="1sglsYP2rjDwxEyhJE_g-52" value="40" style="ellipse;whiteSpace=wrap;html=1;aspect=fixed;sketch=1;fillColor=#FAE5C7;strokeColor=#0F8B8D;fontColor=#143642;" vertex="1" parent="1">
          <mxGeometry x="850" y="1140" width="40" height="40" as="geometry" />
        </mxCell>
        <mxCell id="1sglsYP2rjDwxEyhJE_g-53" value="92" style="ellipse;whiteSpace=wrap;html=1;aspect=fixed;sketch=1;fillColor=#FAE5C7;strokeColor=#0F8B8D;fontColor=#143642;" vertex="1" parent="1">
          <mxGeometry x="1010" y="1140" width="40" height="40" as="geometry" />
        </mxCell>
        <mxCell id="1sglsYP2rjDwxEyhJE_g-54" style="rounded=0;orthogonalLoop=1;jettySize=auto;html=1;entryX=0.5;entryY=0;entryDx=0;entryDy=0;sketch=1;labelBackgroundColor=#DAD2D8;strokeColor=#A8201A;fontColor=#143642;" edge="1" parent="1" source="1sglsYP2rjDwxEyhJE_g-56" target="1sglsYP2rjDwxEyhJE_g-59">
          <mxGeometry relative="1" as="geometry">
            <mxPoint x="1050" y="1286" as="targetPoint" />
          </mxGeometry>
        </mxCell>
        <mxCell id="1sglsYP2rjDwxEyhJE_g-55" style="edgeStyle=none;rounded=0;orthogonalLoop=1;jettySize=auto;html=1;entryX=0.5;entryY=0;entryDx=0;entryDy=0;sketch=1;labelBackgroundColor=#DAD2D8;strokeColor=#A8201A;fontColor=#143642;" edge="1" parent="1" source="1sglsYP2rjDwxEyhJE_g-56" target="1sglsYP2rjDwxEyhJE_g-67">
          <mxGeometry relative="1" as="geometry" />
        </mxCell>
        <mxCell id="1sglsYP2rjDwxEyhJE_g-56" value="82" style="ellipse;whiteSpace=wrap;html=1;aspect=fixed;sketch=1;fillColor=#FAE5C7;strokeColor=#0F8B8D;fontColor=#143642;" vertex="1" parent="1">
          <mxGeometry x="1140" y="1200" width="40" height="40" as="geometry" />
        </mxCell>
        <mxCell id="1sglsYP2rjDwxEyhJE_g-57" style="edgeStyle=none;rounded=0;orthogonalLoop=1;jettySize=auto;html=1;entryX=0.5;entryY=0;entryDx=0;entryDy=0;sketch=1;labelBackgroundColor=#DAD2D8;strokeColor=#A8201A;fontColor=#143642;" edge="1" parent="1" source="1sglsYP2rjDwxEyhJE_g-59" target="1sglsYP2rjDwxEyhJE_g-64">
          <mxGeometry relative="1" as="geometry" />
        </mxCell>
        <mxCell id="1sglsYP2rjDwxEyhJE_g-58" style="edgeStyle=none;rounded=0;orthogonalLoop=1;jettySize=auto;html=1;exitX=0;exitY=0.5;exitDx=0;exitDy=0;entryX=0.5;entryY=0;entryDx=0;entryDy=0;sketch=1;labelBackgroundColor=#DAD2D8;strokeColor=#A8201A;fontColor=#143642;" edge="1" parent="1" source="1sglsYP2rjDwxEyhJE_g-59" target="1sglsYP2rjDwxEyhJE_g-62">
          <mxGeometry relative="1" as="geometry" />
        </mxCell>
        <mxCell id="1sglsYP2rjDwxEyhJE_g-59" value="81" style="ellipse;whiteSpace=wrap;html=1;aspect=fixed;fillColor=#FAE5C7;sketch=1;strokeColor=#0F8B8D;fontColor=#143642;" vertex="1" parent="1">
          <mxGeometry x="1020" y="1280" width="40" height="40" as="geometry" />
        </mxCell>
        <mxCell id="1sglsYP2rjDwxEyhJE_g-60" style="edgeStyle=none;rounded=0;orthogonalLoop=1;jettySize=auto;html=1;entryX=0.5;entryY=0;entryDx=0;entryDy=0;sketch=1;labelBackgroundColor=#DAD2D8;strokeColor=#A8201A;fontColor=#143642;" edge="1" parent="1" source="1sglsYP2rjDwxEyhJE_g-62" target="1sglsYP2rjDwxEyhJE_g-70">
          <mxGeometry relative="1" as="geometry" />
        </mxCell>
        <mxCell id="1sglsYP2rjDwxEyhJE_g-61" style="edgeStyle=none;rounded=0;orthogonalLoop=1;jettySize=auto;html=1;entryX=0.5;entryY=0;entryDx=0;entryDy=0;sketch=1;labelBackgroundColor=#DAD2D8;strokeColor=#A8201A;fontColor=#143642;" edge="1" parent="1" source="1sglsYP2rjDwxEyhJE_g-62" target="1sglsYP2rjDwxEyhJE_g-71">
          <mxGeometry relative="1" as="geometry" />
        </mxCell>
        <mxCell id="1sglsYP2rjDwxEyhJE_g-62" value="66" style="ellipse;whiteSpace=wrap;html=1;aspect=fixed;sketch=1;fillColor=#FAE5C7;strokeColor=#0F8B8D;fontColor=#143642;" vertex="1" parent="1">
          <mxGeometry x="940" y="1360" width="40" height="40" as="geometry" />
        </mxCell>
        <mxCell id="1sglsYP2rjDwxEyhJE_g-63" style="edgeStyle=orthogonalEdgeStyle;rounded=0;orthogonalLoop=1;jettySize=auto;html=1;entryX=1;entryY=0;entryDx=0;entryDy=0;dashed=1;startArrow=none;startFill=0;endArrow=classicThin;endFill=1;opacity=30;exitX=1;exitY=0.5;exitDx=0;exitDy=0;sketch=1;labelBackgroundColor=#DAD2D8;strokeColor=#A8201A;fontColor=#143642;" edge="1" parent="1" source="1sglsYP2rjDwxEyhJE_g-64" target="1sglsYP2rjDwxEyhJE_g-59">
          <mxGeometry relative="1" as="geometry">
            <Array as="points">
              <mxPoint x="1160" y="1380" />
              <mxPoint x="1160" y="1286" />
            </Array>
          </mxGeometry>
        </mxCell>
        <mxCell id="1sglsYP2rjDwxEyhJE_g-64" value="81" style="ellipse;whiteSpace=wrap;html=1;aspect=fixed;fillColor=#FAE5C7;sketch=1;strokeColor=#0F8B8D;fontColor=#143642;" vertex="1" parent="1">
          <mxGeometry x="1100" y="1360" width="40" height="40" as="geometry" />
        </mxCell>
        <mxCell id="1sglsYP2rjDwxEyhJE_g-65" style="edgeStyle=none;rounded=0;orthogonalLoop=1;jettySize=auto;html=1;entryX=0.5;entryY=0;entryDx=0;entryDy=0;sketch=1;labelBackgroundColor=#DAD2D8;strokeColor=#A8201A;fontColor=#143642;" edge="1" parent="1" source="1sglsYP2rjDwxEyhJE_g-67" target="1sglsYP2rjDwxEyhJE_g-68">
          <mxGeometry relative="1" as="geometry" />
        </mxCell>
        <mxCell id="1sglsYP2rjDwxEyhJE_g-66" style="edgeStyle=none;rounded=0;orthogonalLoop=1;jettySize=auto;html=1;exitX=1;exitY=0.5;exitDx=0;exitDy=0;entryX=0.5;entryY=0;entryDx=0;entryDy=0;sketch=1;labelBackgroundColor=#DAD2D8;strokeColor=#A8201A;fontColor=#143642;" edge="1" parent="1" source="1sglsYP2rjDwxEyhJE_g-67" target="1sglsYP2rjDwxEyhJE_g-69">
          <mxGeometry relative="1" as="geometry" />
        </mxCell>
        <mxCell id="1sglsYP2rjDwxEyhJE_g-67" value="62" style="ellipse;whiteSpace=wrap;html=1;aspect=fixed;sketch=1;fillColor=#FAE5C7;strokeColor=#0F8B8D;fontColor=#143642;" vertex="1" parent="1">
          <mxGeometry x="1260" y="1280" width="40" height="40" as="geometry" />
        </mxCell>
        <mxCell id="1sglsYP2rjDwxEyhJE_g-68" value="45" style="ellipse;whiteSpace=wrap;html=1;aspect=fixed;sketch=1;fillColor=#FAE5C7;strokeColor=#0F8B8D;fontColor=#143642;" vertex="1" parent="1">
          <mxGeometry x="1180" y="1360" width="40" height="40" as="geometry" />
        </mxCell>
        <mxCell id="1sglsYP2rjDwxEyhJE_g-69" value="49" style="ellipse;whiteSpace=wrap;html=1;aspect=fixed;sketch=1;fillColor=#FAE5C7;strokeColor=#0F8B8D;fontColor=#143642;" vertex="1" parent="1">
          <mxGeometry x="1340" y="1360" width="40" height="40" as="geometry" />
        </mxCell>
        <mxCell id="1sglsYP2rjDwxEyhJE_g-70" value="40" style="ellipse;whiteSpace=wrap;html=1;aspect=fixed;sketch=1;fillColor=#FAE5C7;strokeColor=#0F8B8D;fontColor=#143642;" vertex="1" parent="1">
          <mxGeometry x="860" y="1440" width="40" height="40" as="geometry" />
        </mxCell>
        <mxCell id="1sglsYP2rjDwxEyhJE_g-71" value="92" style="ellipse;whiteSpace=wrap;html=1;aspect=fixed;sketch=1;fillColor=#FAE5C7;strokeColor=#0F8B8D;fontColor=#143642;" vertex="1" parent="1">
          <mxGeometry x="1020" y="1440" width="40" height="40" as="geometry" />
        </mxCell>
        <mxCell id="1sglsYP2rjDwxEyhJE_g-72" value="&lt;p style=&quot;line-height: 10%&quot;&gt;50&lt;/p&gt;" style="ellipse;whiteSpace=wrap;html=1;aspect=fixed;opacity=30;sketch=1;fillColor=#FAE5C7;strokeColor=#0F8B8D;fontColor=#143642;" vertex="1" parent="1">
          <mxGeometry x="1100" y="800" width="40" height="40" as="geometry" />
        </mxCell>
        <mxCell id="1sglsYP2rjDwxEyhJE_g-73" style="rounded=0;orthogonalLoop=1;jettySize=auto;html=1;entryX=0.5;entryY=0;entryDx=0;entryDy=0;sketch=1;labelBackgroundColor=#DAD2D8;strokeColor=#A8201A;fontColor=#143642;" edge="1" parent="1" source="1sglsYP2rjDwxEyhJE_g-75" target="1sglsYP2rjDwxEyhJE_g-78">
          <mxGeometry relative="1" as="geometry">
            <mxPoint x="1050" y="1636" as="targetPoint" />
          </mxGeometry>
        </mxCell>
        <mxCell id="1sglsYP2rjDwxEyhJE_g-74" style="edgeStyle=none;rounded=0;orthogonalLoop=1;jettySize=auto;html=1;entryX=0.5;entryY=0;entryDx=0;entryDy=0;sketch=1;labelBackgroundColor=#DAD2D8;strokeColor=#A8201A;fontColor=#143642;" edge="1" parent="1" source="1sglsYP2rjDwxEyhJE_g-75" target="1sglsYP2rjDwxEyhJE_g-81">
          <mxGeometry relative="1" as="geometry" />
        </mxCell>
        <mxCell id="1sglsYP2rjDwxEyhJE_g-75" value="82" style="ellipse;whiteSpace=wrap;html=1;aspect=fixed;sketch=1;fillColor=#FAE5C7;strokeColor=#0F8B8D;fontColor=#143642;" vertex="1" parent="1">
          <mxGeometry x="1140" y="1550" width="40" height="40" as="geometry" />
        </mxCell>
        <mxCell id="1sglsYP2rjDwxEyhJE_g-76" style="edgeStyle=none;rounded=0;orthogonalLoop=1;jettySize=auto;html=1;entryX=0.5;entryY=0;entryDx=0;entryDy=0;sketch=1;labelBackgroundColor=#DAD2D8;strokeColor=#A8201A;fontColor=#143642;" edge="1" parent="1" source="1sglsYP2rjDwxEyhJE_g-78" target="1sglsYP2rjDwxEyhJE_g-80">
          <mxGeometry relative="1" as="geometry" />
        </mxCell>
        <mxCell id="1sglsYP2rjDwxEyhJE_g-77" style="edgeStyle=none;rounded=0;orthogonalLoop=1;jettySize=auto;html=1;exitX=0;exitY=0.5;exitDx=0;exitDy=0;entryX=0.5;entryY=0;entryDx=0;entryDy=0;sketch=1;labelBackgroundColor=#DAD2D8;strokeColor=#A8201A;fontColor=#143642;" edge="1" parent="1" source="1sglsYP2rjDwxEyhJE_g-78" target="1sglsYP2rjDwxEyhJE_g-79">
          <mxGeometry relative="1" as="geometry" />
        </mxCell>
        <mxCell id="1sglsYP2rjDwxEyhJE_g-78" value="81" style="ellipse;whiteSpace=wrap;html=1;aspect=fixed;sketch=1;fillColor=#FAE5C7;strokeColor=#0F8B8D;fontColor=#143642;" vertex="1" parent="1">
          <mxGeometry x="1020" y="1630" width="40" height="40" as="geometry" />
        </mxCell>
        <mxCell id="1sglsYP2rjDwxEyhJE_g-79" value="66" style="ellipse;whiteSpace=wrap;html=1;aspect=fixed;sketch=1;fillColor=#FAE5C7;strokeColor=#0F8B8D;fontColor=#143642;" vertex="1" parent="1">
          <mxGeometry x="940" y="1710" width="40" height="40" as="geometry" />
        </mxCell>
        <mxCell id="1sglsYP2rjDwxEyhJE_g-80" value="50" style="ellipse;whiteSpace=wrap;html=1;aspect=fixed;fillColor=#FAE5C7;sketch=1;strokeColor=#0F8B8D;fontColor=#143642;" vertex="1" parent="1">
          <mxGeometry x="1100" y="1710" width="40" height="40" as="geometry" />
        </mxCell>
        <mxCell id="1sglsYP2rjDwxEyhJE_g-81" value="62" style="ellipse;whiteSpace=wrap;html=1;aspect=fixed;sketch=1;fillColor=#FAE5C7;strokeColor=#0F8B8D;fontColor=#143642;" vertex="1" parent="1">
          <mxGeometry x="1260" y="1630" width="40" height="40" as="geometry" />
        </mxCell>
        <mxCell id="1sglsYP2rjDwxEyhJE_g-82" style="rounded=0;orthogonalLoop=1;jettySize=auto;html=1;entryX=0.5;entryY=0;entryDx=0;entryDy=0;sketch=1;labelBackgroundColor=#DAD2D8;strokeColor=#A8201A;fontColor=#143642;" edge="1" parent="1" target="1sglsYP2rjDwxEyhJE_g-86">
          <mxGeometry relative="1" as="geometry">
            <mxPoint x="1050" y="1876" as="targetPoint" />
            <mxPoint x="1142.1114561800014" y="1818.9442719099993" as="sourcePoint" />
          </mxGeometry>
        </mxCell>
        <mxCell id="1sglsYP2rjDwxEyhJE_g-83" style="edgeStyle=none;rounded=0;orthogonalLoop=1;jettySize=auto;html=1;entryX=0.5;entryY=0;entryDx=0;entryDy=0;sketch=1;labelBackgroundColor=#DAD2D8;strokeColor=#A8201A;fontColor=#143642;" edge="1" parent="1" target="1sglsYP2rjDwxEyhJE_g-93">
          <mxGeometry relative="1" as="geometry">
            <mxPoint x="1177.8885438199986" y="1818.9442719099993" as="sourcePoint" />
          </mxGeometry>
        </mxCell>
        <mxCell id="1sglsYP2rjDwxEyhJE_g-84" style="edgeStyle=none;rounded=0;orthogonalLoop=1;jettySize=auto;html=1;entryX=0.5;entryY=0;entryDx=0;entryDy=0;sketch=1;labelBackgroundColor=#DAD2D8;strokeColor=#A8201A;fontColor=#143642;" edge="1" parent="1" source="1sglsYP2rjDwxEyhJE_g-86" target="1sglsYP2rjDwxEyhJE_g-90">
          <mxGeometry relative="1" as="geometry" />
        </mxCell>
        <mxCell id="1sglsYP2rjDwxEyhJE_g-85" style="edgeStyle=none;rounded=0;orthogonalLoop=1;jettySize=auto;html=1;exitX=0;exitY=0.5;exitDx=0;exitDy=0;entryX=0.5;entryY=0;entryDx=0;entryDy=0;sketch=1;labelBackgroundColor=#DAD2D8;strokeColor=#A8201A;fontColor=#143642;" edge="1" parent="1" source="1sglsYP2rjDwxEyhJE_g-86" target="1sglsYP2rjDwxEyhJE_g-89">
          <mxGeometry relative="1" as="geometry" />
        </mxCell>
        <mxCell id="1sglsYP2rjDwxEyhJE_g-86" value="81" style="ellipse;whiteSpace=wrap;html=1;aspect=fixed;sketch=1;fillColor=#FAE5C7;strokeColor=#0F8B8D;fontColor=#143642;" vertex="1" parent="1">
          <mxGeometry x="1020" y="1870" width="40" height="40" as="geometry" />
        </mxCell>
        <mxCell id="1sglsYP2rjDwxEyhJE_g-87" style="edgeStyle=none;rounded=0;orthogonalLoop=1;jettySize=auto;html=1;entryX=0.5;entryY=0;entryDx=0;entryDy=0;sketch=1;labelBackgroundColor=#DAD2D8;strokeColor=#A8201A;fontColor=#143642;" edge="1" parent="1" source="1sglsYP2rjDwxEyhJE_g-89" target="1sglsYP2rjDwxEyhJE_g-96">
          <mxGeometry relative="1" as="geometry" />
        </mxCell>
        <mxCell id="1sglsYP2rjDwxEyhJE_g-88" style="edgeStyle=none;rounded=0;orthogonalLoop=1;jettySize=auto;html=1;entryX=0.5;entryY=0;entryDx=0;entryDy=0;startArrow=none;startFill=0;endArrow=classicThin;endFill=1;sketch=1;labelBackgroundColor=#DAD2D8;strokeColor=#A8201A;fontColor=#143642;" edge="1" parent="1" source="1sglsYP2rjDwxEyhJE_g-89" target="1sglsYP2rjDwxEyhJE_g-98">
          <mxGeometry relative="1" as="geometry" />
        </mxCell>
        <mxCell id="1sglsYP2rjDwxEyhJE_g-89" value="66" style="ellipse;whiteSpace=wrap;html=1;aspect=fixed;sketch=1;fillColor=#FAE5C7;strokeColor=#0F8B8D;fontColor=#143642;" vertex="1" parent="1">
          <mxGeometry x="940" y="1950" width="40" height="40" as="geometry" />
        </mxCell>
        <mxCell id="1sglsYP2rjDwxEyhJE_g-90" value="50" style="ellipse;whiteSpace=wrap;html=1;aspect=fixed;sketch=1;fillColor=#FAE5C7;strokeColor=#0F8B8D;fontColor=#143642;" vertex="1" parent="1">
          <mxGeometry x="1100" y="1950" width="40" height="40" as="geometry" />
        </mxCell>
        <mxCell id="1sglsYP2rjDwxEyhJE_g-91" style="edgeStyle=none;rounded=0;orthogonalLoop=1;jettySize=auto;html=1;entryX=0.5;entryY=0;entryDx=0;entryDy=0;sketch=1;labelBackgroundColor=#DAD2D8;strokeColor=#A8201A;fontColor=#143642;" edge="1" parent="1" source="1sglsYP2rjDwxEyhJE_g-93" target="1sglsYP2rjDwxEyhJE_g-94">
          <mxGeometry relative="1" as="geometry" />
        </mxCell>
        <mxCell id="1sglsYP2rjDwxEyhJE_g-92" style="edgeStyle=none;rounded=0;orthogonalLoop=1;jettySize=auto;html=1;exitX=1;exitY=0.5;exitDx=0;exitDy=0;entryX=0.5;entryY=0;entryDx=0;entryDy=0;sketch=1;labelBackgroundColor=#DAD2D8;strokeColor=#A8201A;fontColor=#143642;" edge="1" parent="1" source="1sglsYP2rjDwxEyhJE_g-93" target="1sglsYP2rjDwxEyhJE_g-95">
          <mxGeometry relative="1" as="geometry" />
        </mxCell>
        <mxCell id="1sglsYP2rjDwxEyhJE_g-93" value="62" style="ellipse;whiteSpace=wrap;html=1;aspect=fixed;sketch=1;fillColor=#FAE5C7;strokeColor=#0F8B8D;fontColor=#143642;" vertex="1" parent="1">
          <mxGeometry x="1260" y="1870" width="40" height="40" as="geometry" />
        </mxCell>
        <mxCell id="1sglsYP2rjDwxEyhJE_g-94" value="45" style="ellipse;whiteSpace=wrap;html=1;aspect=fixed;sketch=1;fillColor=#FAE5C7;strokeColor=#0F8B8D;fontColor=#143642;" vertex="1" parent="1">
          <mxGeometry x="1180" y="1950" width="40" height="40" as="geometry" />
        </mxCell>
        <mxCell id="1sglsYP2rjDwxEyhJE_g-95" value="49" style="ellipse;whiteSpace=wrap;html=1;aspect=fixed;sketch=1;fillColor=#FAE5C7;strokeColor=#0F8B8D;fontColor=#143642;" vertex="1" parent="1">
          <mxGeometry x="1340" y="1950" width="40" height="40" as="geometry" />
        </mxCell>
        <mxCell id="1sglsYP2rjDwxEyhJE_g-96" value="40" style="ellipse;whiteSpace=wrap;html=1;aspect=fixed;sketch=1;fillColor=#FAE5C7;strokeColor=#0F8B8D;fontColor=#143642;" vertex="1" parent="1">
          <mxGeometry x="860" y="2030" width="40" height="40" as="geometry" />
        </mxCell>
        <mxCell id="1sglsYP2rjDwxEyhJE_g-97" value="82" style="ellipse;whiteSpace=wrap;html=1;aspect=fixed;sketch=1;fillColor=#FAE5C7;strokeColor=#0F8B8D;fontColor=#143642;" vertex="1" parent="1">
          <mxGeometry x="1140" y="1790" width="40" height="40" as="geometry" />
        </mxCell>
        <mxCell id="1sglsYP2rjDwxEyhJE_g-98" value="92" style="ellipse;whiteSpace=wrap;html=1;aspect=fixed;fillColor=#FAE5C7;sketch=1;strokeColor=#0F8B8D;fontColor=#143642;" vertex="1" parent="1">
          <mxGeometry x="1010" y="2030" width="40" height="40" as="geometry" />
        </mxCell>
        <mxCell id="1sglsYP2rjDwxEyhJE_g-99" value="push_heap" style="text;html=1;align=center;verticalAlign=middle;resizable=0;points=[];autosize=1;strokeColor=none;fillColor=none;sketch=1;fontColor=#143642;" vertex="1" parent="1">
          <mxGeometry x="1150" y="1720" width="70" height="20" as="geometry" />
        </mxCell>
        <mxCell id="1sglsYP2rjDwxEyhJE_g-100" value="by riverferry.site" style="text;html=1;align=center;verticalAlign=middle;resizable=0;points=[];autosize=1;strokeColor=none;fillColor=none;sketch=1;fontColor=#143642;" vertex="1" parent="1">
          <mxGeometry x="1040" y="510" width="100" height="20" as="geometry" />
        </mxCell>
      </root>
    </mxGraphModel>
  </diagram>
</mxfile>
